# xmcd
# Copyright (C) 1995-1998 Ti Kan
#
# Track frame offsets:
#       150
#       84488
#       153720
#       234118
#
# Disc length: 3592 seconds
#
# Revision: 0
# Processed by: cddbd v1.5.2PL0 Copyright (c) Steve Scherf et al.
# Submitted via: CD-Transfer v1.0
#
DISCID=220e0604
DTITLE=Michael Friedel - 
DYEAR=1900
DGENRE=
TTITLE0=Hitclub 04.07.10 - 005
TTITLE1=Hitclub 04.07.10 - 006
TTITLE2=Hitclub 04.07.10 - 007
TTITLE3=Hitclub 04.07.10 - 008
EXTD=
EXTT0=
EXTT1=
EXTT2=
EXTT3=
PLAYORDER=
